<svg width="53" height="53" viewBox="0 0 53 53" fill="none" xmlns="http://www.w3.org/2000/svg">
<g id="steering">
<path id="Vector" d="M28.6301 43.4404C32.5554 42.9606 35.9356 41.325 38.7705 38.4901C41.6055 35.6551 43.2411 32.275 43.7208 28.3496H37.1786C36.6988 30.5304 35.6957 32.3622 34.1692 33.8887C32.6426 35.4152 30.8108 36.4184 28.6301 36.8981V43.4404ZM22.0879 17.4459H30.8108L37.3531 23.9881H43.7208C43.1756 19.7357 41.2566 16.0938 37.9419 13.0844C34.6489 10.1622 30.8108 8.72294 26.4493 8.72294C22.0879 8.72294 18.2497 10.1622 14.9568 13.0844C11.6421 16.0938 9.72304 19.7357 9.17785 23.9881H15.5456L22.0879 17.4459ZM24.2686 43.4404V36.8981C22.0879 36.4184 20.256 35.4152 18.7295 33.8887C17.203 32.3622 16.1998 30.5304 15.7201 28.3496H9.17785C9.65762 32.2095 11.2932 35.5461 14.1281 38.381C16.9631 41.216 20.3433 42.8952 24.2686 43.4404ZM26.4493 4.36145C32.4464 4.36145 37.5711 6.54219 41.8236 10.7946C46.076 15.0471 48.2568 20.1718 48.2568 26.1689C48.2568 32.1659 46.076 37.2907 41.8236 41.5431C37.5711 45.7956 32.4464 47.9763 26.4493 47.9763C20.4523 47.9763 15.3275 45.7956 11.0751 41.5431C6.82265 37.2907 4.64191 32.1659 4.64191 26.1689C4.64191 20.1718 6.82265 15.0471 11.0751 10.7946C15.3275 6.54219 20.4523 4.36145 26.4493 4.36145Z" fill="white"/>
</g>
</svg>
